<svg xmlns="http://www.w3.org/2000/svg" viewBox="0 0 511 511.832">
  <path d="M270.654 5.915c-8.332-7.927-21.38-7.846-29.616 0L6.733 229.043C2.298 233.265.059 238.93 0 244.611v237.884c0 8.09 3.3 15.428 8.605 20.732 5.304 5.305 12.642 8.605 20.732 8.605h152.231c11.891 0 21.543-9.651 21.543-21.542V364.721c0-14.087 5.761-26.913 15.014-36.189 9.276-9.253 22.102-15.015 36.189-15.015 14.108 0 26.913 5.74 36.144 14.978l.081.081c9.239 9.232 14.978 22.036 14.978 36.145V490.29c0 11.891 9.651 21.542 21.542 21.542h154.604c8.104 0 15.442-3.367 20.695-8.62 5.326-5.326 8.642-12.753 8.642-20.717V244.852c0-6.683-3.05-12.657-7.832-16.614L270.654 5.915z"/>
</svg>
