<svg xmlns="http://www.w3.org/2000/svg" viewBox="0 0 511 511.832">
  <path fill-rule="nonzero" d="M43.084 468.748h116.942V364.721c0-25.882 10.609-49.45 27.679-66.528l.082-.081c17.077-17.07 40.645-27.679 66.527-27.679 25.844 0 49.412 10.617 66.519 27.687l.082.081c17.092 17.151 27.686 40.697 27.686 66.52v104.027h119.315V253.009L255.846 51.151 43.084 253.768v214.98zm138.484 43.084H29.337c-8.09 0-15.428-3.3-20.732-8.605C3.3 497.923 0 490.585 0 482.495V244.611c.059-5.681 2.298-11.346 6.733-15.568L241.038 5.915c8.236-7.846 21.284-7.927 29.616 0l232.514 221.323c4.782 3.957 7.832 9.931 7.832 16.614v238.643c0 7.964-3.316 15.391-8.642 20.717-5.253 5.253-12.591 8.62-20.695 8.62H327.059c-11.891 0-21.542-9.651-21.542-21.542V364.721c0-14.109-5.739-26.913-14.978-36.145l-.081-.081c-9.231-9.238-22.036-14.978-36.144-14.978-14.087 0-26.913 5.762-36.189 15.015-9.253 9.276-15.014 22.102-15.014 36.189V490.29c0 11.891-9.652 21.542-21.543 21.542z"/>
</svg>
